# This file uses centimeters as units for non-parametric coordinates.

mtllib 04_armL.mtl
g default
v 0.411774 -3.974751 0.637156
v 0.413081 -3.978668 -0.633454
v 0.368637 -1.229227 -0.636170
v 0.367329 -1.225310 0.634442
v 0.213499 -4.239176 0.637221
v 0.214806 -4.243094 -0.633391
v 0.036020 -1.312145 -0.635940
v 0.034713 -1.308228 0.634673
v -0.258313 -4.255472 0.636752
v -0.257006 -4.259390 -0.633859
v -0.163726 -1.316992 -0.636378
v -0.165034 -1.313074 0.634234
v -0.413644 -4.003262 0.636336
v -0.412338 -4.007179 -0.634274
v -0.492246 -1.186157 -0.637221
v -0.493554 -1.182240 0.633391
v -0.572993 -4.009165 0.507577
v -0.444549 -4.004326 0.636306
v -0.622338 -1.157704 0.504632
v 0.443725 -3.973644 0.637189
v 0.572455 -3.969599 0.508714
v 0.453839 -1.205261 0.634461
v 0.621297 -1.149899 0.505940
v -0.621296 -1.160828 -0.508777
v -0.571951 -4.012289 -0.505832
v -0.443242 -4.008244 -0.634305
v 0.455146 -1.209179 -0.636149
v 0.622338 -1.153023 -0.507468
v 0.445033 -3.977562 -0.633424
v 0.573498 -3.972723 -0.504693
v 0.078145 -1.858101 -0.149219
v -0.053976 -1.860817 -0.204110
v -0.186210 -1.863339 -0.149480
v -0.241096 -1.864189 -0.017333
v -0.186483 -1.862871 0.114924
v -0.054361 -1.860155 0.169816
v 0.077873 -1.857632 0.115188
v 0.132758 -1.856783 -0.016961
v 0.188216 -1.750191 -0.261373
v -0.055911 -1.755211 -0.362800
v -0.300246 -1.759871 -0.261859
v -0.401662 -1.761444 -0.017680
v -0.300750 -1.759007 0.226699
v -0.056623 -1.753988 0.328126
v 0.187714 -1.749327 0.227185
v 0.289128 -1.747755 -0.016994
v 0.260026 -1.590374 -0.336469
v -0.058942 -1.596930 -0.468987
v -0.378183 -1.603020 -0.337104
v -0.510688 -1.605072 -0.018069
v -0.378839 -1.601889 0.301229
v -0.059871 -1.595333 0.433749
v 0.259370 -1.589243 0.301864
v 0.391874 -1.587189 -0.017173
v 0.282639 -1.402971 -0.363074
v -0.062608 -1.410069 -0.506513
v -0.408151 -1.416660 -0.363761
v -0.551574 -1.418883 -0.018441
v -0.408862 -1.415438 0.327165
v -0.063613 -1.408341 0.470603
v 0.281930 -1.401749 0.327851
v 0.425353 -1.399523 -0.017470
v 0.252619 -1.216519 -0.337138
v -0.066350 -1.223076 -0.469657
v -0.385591 -1.229166 -0.337773
v -0.518095 -1.231220 -0.018739
v -0.386247 -1.228035 0.300559
v -0.067279 -1.221478 0.433080
v 0.251961 -1.215389 0.301194
v 0.384467 -1.213335 -0.017840
v 0.174529 -1.059401 -0.262609
v -0.069598 -1.064419 -0.364036
v -0.313936 -1.069079 -0.263095
v -0.415350 -1.070652 -0.018916
v -0.314438 -1.068215 0.225463
v -0.070310 -1.063196 0.326890
v 0.174025 -1.058535 0.225949
v 0.275441 -1.056963 -0.018229
v 0.060261 -0.955538 -0.150834
v -0.071861 -0.958254 -0.205726
v -0.204094 -0.960777 -0.151095
v -0.258979 -0.961626 -0.018949
v -0.204366 -0.960308 0.113309
v -0.072245 -0.957592 0.168200
v 0.059989 -0.955069 0.113572
v 0.114875 -0.954218 -0.018577
v -0.053432 -1.897667 -0.017081
v -0.072789 -0.920740 -0.018828
vt 0.100239 0.690620
vt 0.104130 0.504818
vt 0.106927 0.504892
vt 0.107812 0.691975
vt 0.190998 0.694688
vt 0.190929 0.628734
vt 0.195527 0.628733
vt 0.204427 0.635404
vt 0.204482 0.688008
vt 0.195596 0.694687
vt 0.104244 0.504553
vt 0.100354 0.690355
vt 0.107927 0.691710
vt 0.107041 0.504628
vt 0.193291 0.628593
vt 0.193361 0.694547
vt 0.195059 0.694546
vt 0.201886 0.687864
vt 0.201831 0.635260
vt 0.194989 0.628592
vt 0.136905 0.618633
vt 0.136721 0.429992
vt 0.203992 0.429783
vt 0.204177 0.618424
vt 0.204263 0.617902
vt 0.204068 0.427137
vt 0.136796 0.427346
vt 0.136992 0.618110
vt 0.182753 0.628590
vt 0.182822 0.694544
vt 0.086887 0.486684
vt 0.071237 0.684752
vt 0.173320 0.694676
vt 0.173251 0.628722
vt 0.071122 0.685017
vt 0.086773 0.486948
vt 0.157677 0.628614
vt 0.157746 0.694568
vt 0.045585 0.485582
vt 0.053751 0.684424
vt 0.162704 0.694699
vt 0.162634 0.628745
vt 0.053636 0.684689
vt 0.045471 0.485847
vt 0.149421 0.628636
vt 0.149490 0.694590
vt 0.031988 0.502626
vt 0.024992 0.693266
vt 0.145243 0.694743
vt 0.145174 0.628789
vt 0.024878 0.693531
vt 0.031873 0.502891
vt 0.029282 0.502554
vt 0.029168 0.502819
vt 0.138329 0.635472
vt 0.138384 0.688076
vt 0.141007 0.687923
vt 0.147848 0.694592
vt 0.147778 0.628637
vt 0.140952 0.635319
vt 0.017924 0.502492
vt 0.013604 0.695189
vt 0.118196 0.505166
vt 0.122471 0.695716
vt 0.013696 0.694978
vt 0.018015 0.502281
vt 0.122562 0.695505
vt 0.118287 0.504955
vt 0.995379 0.988333
vt 0.988866 0.990945
vt 0.988796 0.990274
vt 0.994812 0.987861
vt 0.982348 0.988346
vt 0.982774 0.987872
vt 0.982335 0.975762
vt 0.988847 0.973150
vt 0.988778 0.973833
vt 0.982762 0.976247
vt 0.995365 0.975750
vt 0.994800 0.976235
vt 0.998070 0.982039
vt 0.997299 0.982046
vt 0.988734 0.988351
vt 0.993339 0.986503
vt 0.984126 0.986512
vt 0.980275 0.982062
vt 0.982213 0.982065
vt 0.984116 0.977614
vt 0.988721 0.975767
vt 0.993330 0.977606
vt 0.995243 0.982053
vt 0.988692 0.985467
vt 0.991184 0.984468
vt 0.986198 0.984472
vt 0.985162 0.982066
vt 0.986192 0.979657
vt 0.988684 0.978657
vt 0.991179 0.979652
vt 0.992214 0.982059
vt 0.988674 0.982063
vn -0.000178 0.000937 1.000000
vn -0.000116 0.000931 1.000000
vn -0.000647 0.000982 0.999999
vn -0.000647 0.000982 0.999999
vn -0.259586 0.965715 -0.003243
vn -0.259573 0.965718 -0.003243
vn -0.283980 0.958825 -0.003248
vn -0.283980 0.958825 -0.003248
vn -0.283980 0.958825 -0.003248
vn -0.283980 0.958825 -0.003248
vn 0.000115 -0.000931 -1.000000
vn 0.000172 -0.000937 -1.000000
vn 0.000607 -0.000982 -0.999999
vn 0.000607 -0.000982 -0.999999
vn 0.614562 -0.788862 0.003064
vn 0.614904 -0.788596 0.003064
vn 0.034537 -0.999399 0.003116
vn 0.034537 -0.999399 0.003116
vn 0.034537 -0.999399 0.003116
vn 0.034537 -0.999399 0.003116
vn 0.999850 -0.017318 0.001082
vn 0.999850 -0.017318 0.001082
vn 0.999849 -0.017318 0.001082
vn 0.999850 -0.017318 0.001082
vn -0.999850 -0.017304 -0.000975
vn -0.999850 -0.017304 -0.000975
vn -0.999850 -0.017304 -0.000975
vn -0.999850 -0.017304 -0.000975
vn 0.386625 -0.922231 0.003241
vn 0.386159 -0.922427 0.003241
vn 0.001024 -0.000864 -0.999999
vn 0.000763 -0.000881 -0.999999
vn -0.162651 0.986678 -0.003208
vn -0.162672 0.986675 -0.003208
vn -0.000763 0.000880 0.999999
vn -0.001027 0.000864 0.999999
vn -0.352360 -0.935861 0.002523
vn -0.351814 -0.936066 0.002524
vn 0.001474 -0.000867 -0.999999
vn 0.001587 -0.000893 -0.999998
vn 0.232081 0.972692 -0.002761
vn 0.231903 0.972735 -0.002761
vn -0.001591 0.000892 0.999998
vn -0.001479 0.000866 0.999999
vn -0.633381 -0.773838 0.001735
vn -0.633795 -0.773499 0.001733
vn 0.001813 -0.000955 -0.999998
vn 0.001844 -0.000953 -0.999998
vn 0.344701 0.938709 -0.002541
vn 0.344698 0.938710 -0.002541
vn -0.001847 0.000952 0.999998
vn -0.001816 0.000954 0.999998
vn 0.001000 -0.001016 -0.999999
vn -0.000962 0.001015 0.999999
vn 0.189887 0.981802 -0.002832
vn 0.189887 0.981802 -0.002832
vn 0.034502 -0.999400 0.003117
vn 0.034502 -0.999400 0.003117
vn 0.034502 -0.999400 0.003117
vn 0.034502 -0.999400 0.003117
vn -0.707858 -0.011541 0.706261
vn -0.707857 -0.011541 0.706261
vn -0.707857 -0.011541 0.706261
vn -0.707857 -0.011541 0.706261
vn 0.656063 -0.006179 0.754681
vn 0.656063 -0.006179 0.754681
vn 0.656063 -0.006179 0.754681
vn 0.656063 -0.006179 0.754681
vn -0.706427 -0.012977 -0.707667
vn -0.706427 -0.012977 -0.707667
vn -0.706427 -0.012977 -0.707667
vn -0.706427 -0.012977 -0.707667
vn 0.657519 -0.007678 -0.753399
vn 0.657519 -0.007678 -0.753399
vn 0.657519 -0.007678 -0.753399
vn 0.657519 -0.007678 -0.753399
vn 0.240835 -0.806640 -0.539750
vn 0.240835 -0.806640 -0.539750
vn 0.240835 -0.806640 -0.539750
vn 0.240835 -0.806640 -0.539750
vn -0.207618 -0.815532 -0.540188
vn -0.207618 -0.815532 -0.540188
vn -0.207618 -0.815532 -0.540188
vn -0.207618 -0.815532 -0.540188
vn -0.525031 -0.821253 -0.223353
vn -0.525031 -0.821253 -0.223353
vn -0.525031 -0.821253 -0.223353
vn -0.525031 -0.821253 -0.223353
vn -0.525500 -0.820459 0.225161
vn -0.525500 -0.820459 0.225161
vn -0.525500 -0.820459 0.225161
vn -0.525500 -0.820459 0.225161
vn -0.208721 -0.813607 0.542659
vn -0.208721 -0.813607 0.542659
vn -0.208721 -0.813607 0.542659
vn -0.208721 -0.813607 0.542659
vn 0.239715 -0.804726 0.543096
vn 0.239715 -0.804726 0.543096
vn 0.239715 -0.804726 0.543096
vn 0.239715 -0.804726 0.543096
vn 0.557139 -0.799003 0.226254
vn 0.557139 -0.799003 0.226254
vn 0.557139 -0.799003 0.226254
vn 0.557139 -0.799002 0.226254
vn 0.557610 -0.799792 -0.222271
vn 0.557610 -0.799791 -0.222271
vn 0.557610 -0.799791 -0.222271
vn 0.557610 -0.799792 -0.222271
vn 0.336787 -0.520124 -0.784885
vn 0.336787 -0.520124 -0.784885
vn 0.336787 -0.520124 -0.784885
vn 0.336787 -0.520124 -0.784885
vn -0.314354 -0.533024 -0.785536
vn -0.314354 -0.533024 -0.785536
vn -0.314354 -0.533024 -0.785536
vn -0.314354 -0.533025 -0.785536
vn -0.775258 -0.541338 -0.325466
vn -0.775258 -0.541337 -0.325466
vn -0.775258 -0.541337 -0.325466
vn -0.775258 -0.541337 -0.325466
vn -0.775928 -0.540182 0.325790
vn -0.775928 -0.540182 0.325790
vn -0.775928 -0.540182 0.325790
vn -0.775928 -0.540182 0.325790
vn -0.315973 -0.530247 0.786765
vn -0.315973 -0.530247 0.786765
vn -0.315973 -0.530247 0.786765
vn -0.315973 -0.530247 0.786765
vn 0.335164 -0.517348 0.787411
vn 0.335164 -0.517348 0.787411
vn 0.335164 -0.517348 0.787411
vn 0.335164 -0.517348 0.787411
vn 0.796069 -0.509034 0.327350
vn 0.796069 -0.509034 0.327350
vn 0.796069 -0.509034 0.327350
vn 0.796069 -0.509034 0.327350
vn 0.796733 -0.510192 -0.323914
vn 0.796733 -0.510193 -0.323914
vn 0.796733 -0.510192 -0.323914
vn 0.796733 -0.510192 -0.323914
vn 0.380822 -0.174862 -0.907964
vn 0.380822 -0.174862 -0.907964
vn 0.380822 -0.174862 -0.907964
vn 0.380822 -0.174862 -0.907964
vn -0.371791 -0.189775 -0.908712
vn -0.371791 -0.189775 -0.908712
vn -0.371791 -0.189775 -0.908712
vn -0.371791 -0.189775 -0.908712
vn -0.904517 -0.199376 -0.376960
vn -0.904517 -0.199376 -0.376960
vn -0.904517 -0.199376 -0.376960
vn -0.904517 -0.199376 -0.376960
vn -0.905290 -0.198050 0.375801
vn -0.905290 -0.198050 0.375801
vn -0.905290 -0.198050 0.375801
vn -0.905290 -0.198050 0.375801
vn -0.373666 -0.186559 0.908609
vn -0.373666 -0.186559 0.908609
vn -0.373666 -0.186559 0.908608
vn -0.373666 -0.186559 0.908609
vn 0.378954 -0.171639 0.909359
vn 0.378954 -0.171639 0.909359
vn 0.378954 -0.171639 0.909359
vn 0.378954 -0.171639 0.909359
vn 0.911679 -0.162038 0.377605
vn 0.911679 -0.162038 0.377605
vn 0.911679 -0.162038 0.377605
vn 0.911679 -0.162038 0.377605
vn 0.912451 -0.163370 -0.375159
vn 0.912451 -0.163370 -0.375159
vn 0.912451 -0.163369 -0.375159
vn 0.912451 -0.163370 -0.375159
vn 0.373649 0.186556 -0.908616
vn 0.373649 0.186556 -0.908616
vn 0.373649 0.186556 -0.908616
vn 0.373649 0.186556 -0.908616
vn -0.378945 0.171642 -0.909362
vn -0.378945 0.171642 -0.909362
vn -0.378945 0.171642 -0.909362
vn -0.378945 0.171642 -0.909362
vn -0.911679 0.162040 -0.377605
vn -0.911679 0.162040 -0.377605
vn -0.911679 0.162040 -0.377605
vn -0.911679 0.162040 -0.377605
vn -0.912452 0.163377 0.375151
vn -0.912452 0.163377 0.375151
vn -0.912452 0.163377 0.375151
vn -0.912452 0.163377 0.375151
vn -0.380828 0.174858 0.907962
vn -0.380828 0.174858 0.907962
vn -0.380828 0.174858 0.907962
vn -0.380828 0.174858 0.907962
vn 0.371793 0.189770 0.908712
vn 0.371793 0.189770 0.908712
vn 0.371793 0.189770 0.908712
vn 0.371793 0.189770 0.908712
vn 0.904518 0.199375 0.376958
vn 0.904518 0.199375 0.376958
vn 0.904518 0.199375 0.376958
vn 0.904518 0.199375 0.376958
vn 0.905292 0.198043 -0.375800
vn 0.905292 0.198043 -0.375800
vn 0.905292 0.198043 -0.375800
vn 0.905292 0.198043 -0.375800
vn 0.315969 0.530244 -0.786768
vn 0.315969 0.530244 -0.786768
vn 0.315969 0.530244 -0.786768
vn 0.315969 0.530244 -0.786769
vn -0.335168 0.517343 -0.787413
vn -0.335168 0.517343 -0.787412
vn -0.335168 0.517343 -0.787413
vn -0.335168 0.517343 -0.787413
vn -0.796071 0.509028 -0.327356
vn -0.796071 0.509028 -0.327356
vn -0.796071 0.509028 -0.327356
vn -0.796071 0.509028 -0.327356
vn -0.796741 0.510182 0.323911
vn -0.796741 0.510182 0.323911
vn -0.796741 0.510182 0.323911
vn -0.796741 0.510182 0.323911
vn -0.336783 0.520117 0.784892
vn -0.336783 0.520117 0.784892
vn -0.336783 0.520117 0.784892
vn -0.336783 0.520117 0.784892
vn 0.314355 0.533025 0.785535
vn 0.314355 0.533026 0.785535
vn 0.314355 0.533026 0.785535
vn 0.314355 0.533026 0.785535
vn 0.775257 0.541333 0.325476
vn 0.775257 0.541333 0.325476
vn 0.775257 0.541333 0.325476
vn 0.775257 0.541333 0.325476
vn 0.775930 0.540182 -0.325785
vn 0.775930 0.540182 -0.325785
vn 0.775930 0.540182 -0.325785
vn 0.775930 0.540182 -0.325785
vn 0.208728 0.813620 -0.542637
vn 0.208728 0.813620 -0.542637
vn 0.208728 0.813620 -0.542637
vn 0.208728 0.813620 -0.542637
vn -0.239711 0.804730 -0.543091
vn -0.239711 0.804730 -0.543091
vn -0.239711 0.804730 -0.543091
vn -0.239711 0.804730 -0.543091
vn -0.557127 0.799014 -0.226244
vn -0.557127 0.799014 -0.226244
vn -0.557127 0.799014 -0.226244
vn -0.557127 0.799014 -0.226244
vn -0.557599 0.799802 0.222260
vn -0.557599 0.799803 0.222260
vn -0.557599 0.799802 0.222260
vn -0.557599 0.799802 0.222260
vn -0.240826 0.806650 0.539739
vn -0.240826 0.806650 0.539739
vn -0.240826 0.806650 0.539739
vn -0.240826 0.806650 0.539739
vn 0.207607 0.815532 0.540191
vn 0.207607 0.815532 0.540191
vn 0.207607 0.815532 0.540191
vn 0.207607 0.815532 0.540191
vn 0.525030 0.821253 0.223355
vn 0.525030 0.821253 0.223354
vn 0.525030 0.821253 0.223354
vn 0.525030 0.821253 0.223354
vn 0.525486 0.820460 -0.225187
vn 0.525486 0.820461 -0.225187
vn 0.525486 0.820460 -0.225187
vn 0.525486 0.820460 -0.225187
vn 0.100098 -0.976154 -0.192622
vn 0.100098 -0.976154 -0.192622
vn 0.100098 -0.976154 -0.192622
vn -0.060973 -0.979345 -0.192784
vn -0.060973 -0.979345 -0.192784
vn -0.060973 -0.979345 -0.192784
vn -0.174967 -0.981401 -0.078985
vn -0.174967 -0.981401 -0.078985
vn -0.174967 -0.981401 -0.078985
vn -0.175138 -0.981115 0.082095
vn -0.175138 -0.981115 0.082095
vn -0.175138 -0.981115 0.082095
vn -0.061359 -0.978661 0.196106
vn -0.061359 -0.978661 0.196106
vn -0.061359 -0.978661 0.196106
vn 0.099705 -0.975464 0.196289
vn 0.099705 -0.975464 0.196289
vn 0.099705 -0.975464 0.196289
vn 0.213694 -0.973415 0.082454
vn 0.213694 -0.973415 0.082454
vn 0.213694 -0.973415 0.082454
vn 0.213854 -0.973699 -0.078588
vn 0.213854 -0.973699 -0.078588
vn 0.213854 -0.973699 -0.078588
vn 0.061363 0.978655 -0.196136
vn 0.061363 0.978655 -0.196136
vn 0.061363 0.978655 -0.196136
vn -0.099710 0.975466 -0.196276
vn -0.099710 0.975466 -0.196276
vn -0.099710 0.975466 -0.196276
vn -0.213704 0.973408 -0.082511
vn -0.213704 0.973408 -0.082511
vn -0.213704 0.973408 -0.082511
vn -0.213863 0.973693 0.078645
vn -0.213863 0.973693 0.078645
vn -0.213863 0.973693 0.078645
vn -0.100102 0.976152 0.192632
vn -0.100102 0.976152 0.192632
vn -0.100102 0.976152 0.192632
vn 0.060964 0.979345 0.192789
vn 0.060964 0.979345 0.192789
vn 0.060964 0.979345 0.192789
vn 0.174969 0.981399 0.079002
vn 0.174969 0.981399 0.079002
vn 0.174969 0.981399 0.079002
vn 0.175134 0.981114 -0.082114
vn 0.175134 0.981114 -0.082114
vn 0.175134 0.981114 -0.082114
s 1
g polySurface596
usemtl lambert15SG
f 4/1/1 1/2/2 20/3/3 22/4/4
s 2
f 3/5/5 4/6/6 22/7/7 23/8/8 28/9/9 27/10/10
s 3
f 2/11/11 3/12/12 27/13/13 29/14/14
s 4
f 1/15/15 2/16/16 29/17/17 30/18/18 21/19/19 20/20/20
s off
f 23/21/21 21/22/22 30/23/23 28/24/24
f 24/25/25 25/26/26 17/27/27 19/28/28
s 4
f 5/29/29 6/30/30 2/16/16 1/15/15
s 3
f 6/31/31 7/32/32 3/12/12 2/11/11
s 2
f 7/33/33 8/34/34 4/6/6 3/5/5
s 1
f 8/35/35 5/36/36 1/2/2 4/1/1
s 4
f 9/37/37 10/38/38 6/30/30 5/29/29
s 3
f 10/39/39 11/40/40 7/32/32 6/31/31
s 2
f 11/41/41 12/42/42 8/34/34 7/33/33
s 1
f 12/43/43 9/44/44 5/36/36 8/35/35
s 4
f 13/45/45 14/46/46 10/38/38 9/37/37
s 3
f 14/47/47 15/48/48 11/40/40 10/39/39
s 2
f 15/49/49 16/50/50 12/42/42 11/41/41
s 1
f 16/51/51 13/52/52 9/44/44 12/43/43
s 3
f 26/53/53 15/48/48 14/47/47
s 1
f 16/51/51 18/54/54 13/52/52
s 2
f 19/55/55 16/50/50 15/49/49 24/56/56
s 4
f 25/57/57 26/58/58 14/46/46 13/45/45 18/59/59 17/60/60
s off
f 17/61/61 18/54/62 16/51/63 19/62/64
f 20/3/65 21/63/66 23/64/67 22/4/68
f 24/65/69 15/48/70 26/53/71 25/66/72
f 27/13/73 28/67/74 30/68/75 29/14/76
f 31//77 32//78 40//79 39//80
f 32//81 33//82 41//83 40//84
f 33//85 34//86 42//87 41//88
f 34//89 35//90 43//91 42//92
f 35//93 36//94 44//95 43//96
f 36//97 37//98 45//99 44//100
f 37//101 38//102 46//103 45//104
f 38//105 31//106 39//107 46//108
f 39//109 40//110 48//111 47//112
f 40//113 41//114 49//115 48//116
f 41//117 42//118 50//119 49//120
f 42//121 43//122 51//123 50//124
f 43//125 44//126 52//127 51//128
f 44//129 45//130 53//131 52//132
f 45//133 46//134 54//135 53//136
f 46//137 39//138 47//139 54//140
f 47//141 48//142 56//143 55//144
f 48//145 49//146 57//147 56//148
f 49//149 50//150 58//151 57//152
f 50//153 51//154 59//155 58//156
f 51//157 52//158 60//159 59//160
f 52//161 53//162 61//163 60//164
f 53//165 54//166 62//167 61//168
f 54//169 47//170 55//171 62//172
f 55/69/173 56/70/174 64/71/175 63/72/176
f 56/70/177 57/73/178 65/74/179 64/71/180
f 57//181 58//182 66//183 65//184
f 58//185 59//186 67//187 66//188
f 59/75/189 60/76/190 68/77/191 67/78/192
f 60/76/193 61/79/194 69/80/195 68/77/196
f 61/79/197 62/81/198 70/82/199 69/80/200
f 62/81/201 55/69/202 63/72/203 70/82/204
f 63/72/205 64/71/206 72/83/207 71/84/208
f 64/71/209 65/74/210 73/85/211 72/83/212
f 65/74/213 66/86/214 74/87/215 73/85/216
f 66/86/217 67/78/218 75/88/219 74/87/220
f 67/78/221 68/77/222 76/89/223 75/88/224
f 68/77/225 69/80/226 77/90/227 76/89/228
f 69/80/229 70/82/230 78/91/231 77/90/232
f 70/82/233 63/72/234 71/84/235 78/91/236
f 71/84/237 72/83/238 80/92/239 79/93/240
f 72/83/241 73/85/242 81/94/243 80/92/244
f 73/85/245 74/87/246 82/95/247 81/94/248
f 74/87/249 75/88/250 83/96/251 82/95/252
f 75/88/253 76/89/254 84/97/255 83/96/256
f 76/89/257 77/90/258 85/98/259 84/97/260
f 77/90/261 78/91/262 86/99/263 85/98/264
f 78/91/265 71/84/266 79/93/267 86/99/268
f 32//269 31//270 87//271
f 33//272 32//273 87//274
f 34//275 33//276 87//277
f 35//278 34//279 87//280
f 36//281 35//282 87//283
f 37//284 36//285 87//286
f 38//287 37//288 87//289
f 31//290 38//291 87//292
f 79/93/293 80/92/294 88/100/295
f 80/92/296 81/94/297 88/100/298
f 81/94/299 82/95/300 88/100/301
f 82/95/302 83/96/303 88/100/304
f 83/96/305 84/97/306 88/100/307
f 84/97/308 85/98/309 88/100/310
f 85/98/311 86/99/312 88/100/313
f 86/99/314 79/93/315 88/100/316
