# This file uses centimeters as units for non-parametric coordinates.

mtllib 06_shoulderR.mtl
g default
v -2.333695 0.586462 0.063864
v -2.296765 0.638317 0.037495
v -2.259834 0.690170 0.063864
v -2.244537 0.711649 0.127525
v -2.259834 0.690170 0.191187
v -2.296765 0.638317 0.217556
v -2.333695 0.586462 0.191187
v -2.348992 0.564985 0.127525
v -2.712843 0.856493 0.063864
v -2.675912 0.908348 0.037495
v -2.638981 0.960201 0.063864
v -2.623684 0.981680 0.127525
v -2.638981 0.960201 0.191187
v -2.675912 0.908348 0.217556
v -2.712843 0.856493 0.191187
v -2.728140 0.835016 0.127525
v -2.296765 0.638317 0.127525
v -2.675912 0.908348 0.127525
v -1.248208 0.009024 -1.235905
v -1.248208 0.009024 1.362945
v -2.358098 0.649817 -0.978643
v -2.119218 0.511900 -1.235905
v -1.889003 1.118914 -0.978643
v -1.751086 0.880032 -1.235905
v -1.248208 1.290613 -0.978643
v -1.248208 1.014776 -1.235905
v -0.607413 1.118914 -0.978643
v -0.745331 0.880032 -1.235905
v -0.138318 0.649817 -0.978643
v -0.377200 0.511900 -1.235905
v 0.033382 0.009024 -0.978643
v -0.242454 0.009024 -1.235905
v -0.138318 -0.631773 -0.978643
v -0.377200 -0.493855 -1.235905
v -0.607413 -1.100866 -0.978643
v -0.745331 -0.861986 -1.235905
v -1.248208 -1.272568 -0.978643
v -1.248208 -0.996731 -1.235905
v -1.889003 -1.100866 -0.978643
v -1.751086 -0.861986 -1.235905
v -2.358098 -0.631773 -0.978643
v -2.119218 -0.493855 -1.235905
v -2.529799 0.009024 -0.978643
v -2.253962 0.009024 -1.235905
v -2.358098 0.649817 1.105683
v -2.119218 0.511900 1.362945
v -1.889003 1.118914 1.105683
v -1.751086 0.880032 1.362945
v -1.248208 1.290613 1.105683
v -1.248208 1.014776 1.362945
v -0.607413 1.118914 1.105683
v -0.745331 0.880032 1.362945
v -0.138318 0.649817 1.105683
v -0.377200 0.511900 1.362945
v 0.033382 0.009024 1.105683
v -0.242454 0.009024 1.362945
v -0.138318 -0.631773 1.105683
v -0.377200 -0.493855 1.362945
v -0.607413 -1.100866 1.105683
v -0.745331 -0.861986 1.362945
v -1.248208 -1.272568 1.105683
v -1.248208 -0.996731 1.362945
v -1.889003 -1.100866 1.105683
v -1.751086 -0.861986 1.362945
v -2.358098 -0.631773 1.105683
v -2.119218 -0.493855 1.362945
v -2.529799 0.009024 1.105683
v -2.253962 0.009024 1.362945
v -2.929201 -1.044287 1.553531
v -3.014295 -1.034214 1.553531
v -2.704637 0.852652 1.553531
v -2.789732 0.862724 1.553531
v -2.704637 0.852652 -1.210716
v -2.789732 0.862724 -1.210716
v -2.929201 -1.044287 -1.210716
v -3.014295 -1.034214 -1.210716
v -2.952136 -0.905416 2.334247
v -2.959570 -0.904537 2.334247
v -2.921331 -0.581533 2.334247
v -2.913899 -0.582413 2.334247
v -2.717431 0.622854 1.795532
v -2.920146 0.786955 1.795532
v -1.907048 1.705996 1.101369
v -2.109763 1.870094 1.101369
v -1.553220 2.050188 -1.210714
v -1.755935 2.214285 -1.210714
v -2.755084 0.565493 -1.210714
v -2.957798 0.729589 -1.210714
vt 0.964624 0.966107
vt 0.955611 0.960904
vt 0.941722 0.974793
vt 0.946925 0.983806
vt 0.971102 0.941931
vt 0.960695 0.941931
vt 0.922748 0.979877
vt 0.922748 0.990284
vt 0.903775 0.974793
vt 0.898571 0.983806
vt 0.889885 0.960904
vt 0.880872 0.966107
vt 0.884801 0.941931
vt 0.874394 0.941931
vt 0.889885 0.922957
vt 0.880872 0.917754
vt 0.903775 0.909068
vt 0.898571 0.900055
vt 0.922748 0.903984
vt 0.922748 0.893577
vt 0.941722 0.909068
vt 0.946925 0.900055
vt 0.955611 0.922957
vt 0.964624 0.917754
vt 0.964624 0.966107
vt 0.955611 0.960904
vt 0.960695 0.941931
vt 0.971102 0.941931
vt 0.946925 0.983806
vt 0.941722 0.974793
vt 0.922748 0.990284
vt 0.922748 0.979877
vt 0.898571 0.983806
vt 0.903775 0.974793
vt 0.880872 0.966107
vt 0.889885 0.960904
vt 0.874394 0.941931
vt 0.884801 0.941931
vt 0.880872 0.917754
vt 0.889885 0.922957
vt 0.898571 0.900055
vt 0.903775 0.909068
vt 0.922748 0.893577
vt 0.922748 0.903984
vt 0.946925 0.900055
vt 0.941722 0.909068
vt 0.964624 0.917754
vt 0.955611 0.922957
vt 0.870659 0.892431
vt 0.859729 0.892431
vt 0.859729 0.832712
vt 0.870659 0.832712
vt 0.844800 0.892431
vt 0.844800 0.832712
vt 0.829870 0.892431
vt 0.829870 0.832712
vt 0.818941 0.892431
vt 0.818941 0.832712
vt 0.814940 0.892431
vt 0.814940 0.832712
vt 0.818941 0.892431
vt 0.818941 0.832712
vt 0.829870 0.892431
vt 0.829870 0.832712
vt 0.844800 0.892431
vt 0.844800 0.832712
vt 0.859729 0.892431
vt 0.859729 0.832712
vt 0.870659 0.892431
vt 0.870659 0.832712
vt 0.874659 0.892431
vt 0.874659 0.832712
vt 0.922748 0.941931
vt 0.922748 0.941931
vt 0.794751 0.782795
vt 0.797078 0.781642
vt 0.790319 0.755701
vt 0.787993 0.756854
vt 0.828498 0.814144
vt 0.832098 0.814144
vt 0.832098 0.765946
vt 0.828498 0.765946
vt 0.890606 0.766818
vt 0.976291 0.766818
vt 0.976291 0.830787
vt 0.890606 0.830787
vt 0.976291 0.766479
vt 0.890606 0.766479
vt 0.890606 0.830447
vt 0.976291 0.830447
vt 0.829783 0.752333
vt 0.829469 0.752333
vt 0.866406 0.782084
vt 0.866406 0.771192
vt 0.797078 0.781642
vt 0.794751 0.782795
vt 0.790684 0.762581
vt 0.790887 0.762480
vt 0.866406 0.771162
vt 0.866406 0.782054
vt 0.793550 0.779867
vt 0.800032 0.778790
vt 0.785779 0.803804
vt 0.779297 0.804882
vt 0.820614 0.765672
vt 0.829726 0.762157
vt 0.830345 0.811129
vt 0.821232 0.814644
vt 0.772211 0.814271
vt 0.778693 0.813193
vt 0.800647 0.777543
vt 0.794165 0.778622
vt 0.821132 0.814144
vt 0.829708 0.814144
vt 0.828115 0.761726
vt 0.819539 0.761726
vt 0.883105 0.828232
vt 0.976291 0.826298
vt 0.976291 0.876365
vt 0.904622 0.864758
vt 0.976291 0.820764
vt 0.883105 0.822698
vt 0.904622 0.859224
vt 0.976291 0.870831
vn -0.221997 -0.311704 -0.923882
vn -0.221997 -0.311704 -0.923882
vn -0.221997 -0.311704 -0.923882
vn -0.221997 -0.311704 -0.923882
vn 0.222002 0.311710 -0.923879
vn 0.222002 0.311710 -0.923879
vn 0.222002 0.311710 -0.923879
vn 0.222002 0.311710 -0.923879
vn 0.535958 0.752533 -0.382679
vn 0.535958 0.752533 -0.382679
vn 0.535958 0.752533 -0.382679
vn 0.535958 0.752533 -0.382679
vn 0.535958 0.752533 0.382679
vn 0.535958 0.752533 0.382679
vn 0.535958 0.752533 0.382679
vn 0.535958 0.752533 0.382679
vn 0.222002 0.311710 0.923879
vn 0.222002 0.311710 0.923879
vn 0.222002 0.311710 0.923879
vn 0.222002 0.311710 0.923879
vn -0.221997 -0.311704 0.923882
vn -0.221997 -0.311704 0.923882
vn -0.221997 -0.311704 0.923882
vn -0.221997 -0.311704 0.923882
vn -0.535963 -0.752540 0.382659
vn -0.535963 -0.752540 0.382659
vn -0.535963 -0.752540 0.382659
vn -0.535963 -0.752540 0.382659
vn -0.535963 -0.752540 -0.382659
vn -0.535963 -0.752540 -0.382659
vn -0.535963 -0.752540 -0.382659
vn -0.535963 -0.752540 -0.382659
vn 0.814534 -0.580116 0.000000
vn 0.814533 -0.580117 -0.000000
vn 0.814538 -0.580111 0.000006
vn 0.814529 -0.580123 0.000003
vn 0.814530 -0.580122 0.000000
vn 0.814529 -0.580123 -0.000003
vn 0.814534 -0.580116 0.000000
vn 0.814538 -0.580111 -0.000006
vn 0.814535 -0.580115 0.000000
vn -0.814534 0.580116 -0.000006
vn -0.814533 0.580117 0.000000
vn -0.814534 0.580116 0.000000
vn -0.814532 0.580118 -0.000002
vn -0.814535 0.580115 0.000000
vn -0.814532 0.580118 0.000002
vn -0.814534 0.580116 0.000000
vn -0.814534 0.580116 0.000006
vn -0.814530 0.580122 0.000000
vn -0.590677 0.341028 -0.731300
vn -0.341027 0.590677 -0.731301
vn -0.341028 0.590677 -0.731301
vn -0.590677 0.341028 -0.731300
vn -0.682055 0.000000 -0.731301
vn -0.682055 -0.000000 -0.731301
vn -0.000000 0.682054 -0.731302
vn -0.000000 0.682054 -0.731302
vn 0.341027 0.590676 -0.731302
vn 0.341028 0.590676 -0.731302
vn 0.590677 0.341027 -0.731301
vn 0.590677 0.341028 -0.731301
vn 0.682054 -0.000000 -0.731302
vn 0.682054 0.000000 -0.731302
vn 0.590677 -0.341027 -0.731301
vn 0.590677 -0.341027 -0.731301
vn 0.341027 -0.590677 -0.731301
vn 0.341027 -0.590677 -0.731301
vn 0.000000 -0.682055 -0.731301
vn -0.000000 -0.682055 -0.731301
vn -0.341027 -0.590678 -0.731300
vn -0.341027 -0.590678 -0.731300
vn -0.590677 -0.341028 -0.731301
vn -0.590677 -0.341027 -0.731301
vn -0.590677 0.341028 0.731301
vn -0.682055 -0.000000 0.731301
vn -0.682055 0.000000 0.731301
vn -0.590677 0.341028 0.731301
vn -0.341028 0.590677 0.731301
vn -0.341027 0.590677 0.731301
vn -0.000000 0.682054 0.731302
vn -0.000000 0.682054 0.731302
vn 0.341028 0.590676 0.731302
vn 0.341027 0.590676 0.731302
vn 0.590677 0.341028 0.731301
vn 0.590677 0.341027 0.731301
vn 0.682054 0.000000 0.731302
vn 0.682054 -0.000000 0.731302
vn 0.590677 -0.341027 0.731301
vn 0.590677 -0.341027 0.731301
vn 0.341027 -0.590677 0.731301
vn 0.341027 -0.590677 0.731301
vn 0.000000 -0.682055 0.731301
vn 0.000000 -0.682055 0.731301
vn -0.341027 -0.590678 0.731300
vn -0.341027 -0.590678 0.731300
vn -0.590677 -0.341027 0.731301
vn -0.590677 -0.341028 0.731301
vn -0.866025 0.500001 0.000000
vn -0.866025 0.500001 0.000000
vn -0.500001 0.866025 0.000000
vn -0.500001 0.866025 0.000000
vn -0.258818 0.965926 0.000000
vn -0.258818 0.965926 0.000000
vn 0.258818 0.965926 0.000000
vn 0.258818 0.965926 0.000000
vn 0.500001 0.866025 0.000000
vn 0.500001 0.866025 0.000000
vn 0.866025 0.500000 0.000000
vn 0.866025 0.500000 0.000000
vn 0.965926 0.258820 0.000000
vn 0.965926 0.258820 0.000000
vn 0.965926 -0.258819 0.000000
vn 0.965926 -0.258819 0.000000
vn 0.866025 -0.500000 0.000000
vn 0.866025 -0.500000 0.000000
vn 0.500000 -0.866026 0.000000
vn 0.500000 -0.866026 0.000000
vn 0.258820 -0.965926 0.000000
vn 0.258820 -0.965926 0.000000
vn -0.258820 -0.965925 0.000000
vn -0.258820 -0.965925 0.000000
vn -0.500000 -0.866026 0.000000
vn -0.500000 -0.866026 0.000000
vn -0.866025 -0.500001 0.000000
vn -0.866025 -0.500001 0.000000
vn -0.965926 -0.258819 0.000000
vn -0.965926 -0.258819 0.000000
vn -0.965925 0.258821 0.000000
vn -0.965925 0.258821 0.000000
vn -0.000000 0.000000 -1.000000
vn -0.000000 0.000000 -1.000000
vn 0.000000 0.000000 -1.000000
vn 0.000000 0.000000 -1.000000
vn 0.000000 0.000000 -1.000000
vn 0.000000 0.000000 -1.000000
vn 0.000000 0.000000 -1.000000
vn 0.000000 0.000000 -1.000000
vn 0.000000 0.000000 -1.000000
vn 0.000000 0.000000 -1.000000
vn -0.000000 0.000000 -1.000000
vn -0.000000 0.000000 -1.000000
vn 0.000000 0.000000 -1.000000
vn -0.000000 0.000000 1.000000
vn -0.000000 0.000000 1.000000
vn -0.000000 0.000000 1.000000
vn -0.000000 0.000000 1.000000
vn 0.000000 0.000000 1.000000
vn 0.000000 0.000000 1.000000
vn 0.000000 0.000000 1.000000
vn 0.000000 0.000000 1.000000
vn 0.000000 0.000000 1.000000
vn -0.000000 0.000000 1.000000
vn -0.000000 0.000000 1.000000
vn -0.000000 0.000000 1.000000
vn 0.000000 0.000000 1.000000
vn -0.000005 0.000000 1.000000
vn -0.000005 0.000000 1.000000
vn -0.000005 0.000000 1.000000
vn -0.000005 0.000000 1.000000
vn 0.114201 0.964779 0.236980
vn 0.117550 0.993067 0.000000
vn 0.117550 0.993067 0.000000
vn 0.114201 0.964778 0.236983
vn -0.000000 0.000000 -1.000000
vn -0.000000 0.000000 -1.000000
vn -0.000000 0.000000 -1.000000
vn -0.000000 0.000000 -1.000000
vn -0.117550 -0.993067 0.000000
vn -0.117520 -0.992818 0.022418
vn -0.117520 -0.992817 0.022418
vn -0.117550 -0.993067 0.000000
vn -0.993045 0.117559 0.006428
vn -0.993063 0.117561 0.002477
vn -0.993066 0.117561 0.000000
vn -0.993066 0.117561 0.000000
vn 0.993066 -0.117561 0.000000
vn 0.993066 -0.117561 0.000000
vn 0.993063 -0.117561 0.002477
vn 0.993045 -0.117559 0.006428
vn -0.115819 -0.978502 0.170648
vn -0.115819 -0.978502 0.170648
vn -0.991822 0.117414 0.050022
vn -0.991822 0.117414 0.050022
vn 0.055736 0.470860 0.880446
vn 0.055736 0.470860 0.880446
vn 0.991822 -0.117414 0.050023
vn 0.991822 -0.117414 0.050023
vn 0.287424 0.355059 0.889562
vn 0.287424 0.355059 0.889562
vn 0.287424 0.355059 0.889562
vn 0.287424 0.355059 0.889562
vn 0.615507 0.760356 0.207385
vn 0.615507 0.760356 0.207385
vn 0.615507 0.760356 0.207385
vn 0.615507 0.760357 0.207385
vn 0.000000 0.000000 -1.000000
vn 0.000000 0.000000 -1.000000
vn 0.000000 0.000000 -1.000000
vn 0.000000 0.000000 -1.000000
vn -0.629028 -0.777051 0.022706
vn -0.629028 -0.777051 0.022706
vn -0.629028 -0.777051 0.022706
vn -0.629028 -0.777051 0.022706
vn -0.788841 0.614444 -0.013759
vn -0.788841 0.614444 -0.013759
vn -0.788841 0.614444 -0.013759
vn -0.788841 0.614444 -0.013759
vn 0.788841 -0.614444 0.013758
vn 0.788841 -0.614444 0.013758
vn 0.788841 -0.614444 0.013758
vn 0.788841 -0.614444 0.013758
s off
g polySurface615
usemtl lambert15SG
f 1//1 9//2 10//3 2//4
f 2//5 10//6 11//7 3//8
f 3//9 11//10 12//11 4//12
f 4//13 12//14 13//15 5//16
f 5//17 13//18 14//19 6//20
f 6//21 14//22 15//23 7//24
f 7//25 15//26 16//27 8//28
f 8//29 16//30 9//31 1//32
s 1
f 2//33 17//34 1//35
f 3//36 17//34 2//33
f 4//37 17//34 3//36
f 5//38 17//34 4//37
f 6//39 17//34 5//38
f 7//40 17//34 6//39
f 8//41 17//34 7//40
f 1//35 17//34 8//41
s 2
f 9//42 18//43 10//44
f 10//44 18//43 11//45
f 11//45 18//43 12//46
f 12//46 18//43 13//47
f 13//47 18//43 14//48
f 14//48 18//43 15//49
f 15//49 18//43 16//50
f 16//50 18//43 9//42
s 3
f 21/1/51 23/4/52 24/3/53 22/2/54
f 22/2/54 44/6/55 43/5/56 21/1/51
f 23/4/52 25/8/57 26/7/58 24/3/53
f 25/8/57 27/10/59 28/9/60 26/7/58
f 27/10/59 29/12/61 30/11/62 28/9/60
f 29/12/61 31/14/63 32/13/64 30/11/62
f 31/14/63 33/16/65 34/15/66 32/13/64
f 33/16/65 35/18/67 36/17/68 34/15/66
f 35/18/67 37/20/69 38/19/70 36/17/68
f 37/20/69 39/22/71 40/21/72 38/19/70
f 39/22/71 41/24/73 42/23/74 40/21/72
f 41/24/73 43/5/56 44/6/55 42/23/74
s 4
f 45/25/75 67/28/76 68/27/77 46/26/78
f 46/26/78 48/30/79 47/29/80 45/25/75
f 48/30/79 50/32/81 49/31/82 47/29/80
f 50/32/81 52/34/83 51/33/84 49/31/82
f 52/34/83 54/36/85 53/35/86 51/33/84
f 54/36/85 56/38/87 55/37/88 53/35/86
f 56/38/87 58/40/89 57/39/90 55/37/88
f 58/40/89 60/42/91 59/41/92 57/39/90
f 60/42/91 62/44/93 61/43/94 59/41/92
f 62/44/93 64/46/95 63/45/96 61/43/94
f 64/46/95 66/48/97 65/47/98 63/45/96
f 66/48/97 68/27/77 67/28/76 65/47/98
s 5
f 21/49/99 45/52/100 47/51/101 23/50/102
f 23/50/102 47/51/101 49/54/103 25/53/104
s 6
f 25/53/105 49/54/106 51/56/107 27/55/108
f 27/55/108 51/56/107 53/58/109 29/57/110
f 29/57/110 53/58/109 55/60/111 31/59/112
s 7
f 31/59/113 55/60/114 57/62/115 33/61/116
f 33/61/116 57/62/115 59/64/117 35/63/118
f 35/63/118 59/64/117 61/66/119 37/65/120
s 8
f 37/65/121 61/66/122 63/68/123 39/67/124
f 39/67/124 63/68/123 65/70/125 41/69/126
f 41/69/126 65/70/125 67/72/127 43/71/128
s 5
f 43/71/129 67/72/130 45/52/100 21/49/99
s 9
f 24/3/131 19/73/132 22/2/133
f 26/7/134 19/73/132 24/3/131
f 28/9/135 19/73/132 26/7/134
f 30/11/136 19/73/132 28/9/135
f 32/13/137 19/73/132 30/11/136
f 34/15/138 19/73/132 32/13/137
f 36/17/139 19/73/132 34/15/138
f 38/19/140 19/73/132 36/17/139
f 40/21/141 19/73/132 38/19/140
f 42/23/142 19/73/132 40/21/141
f 44/6/143 19/73/132 42/23/142
f 22/2/133 19/73/132 44/6/143
s 10
f 46/26/144 20/74/145 48/30/146
f 48/30/146 20/74/145 50/32/147
f 50/32/147 20/74/145 52/34/148
f 52/34/148 20/74/145 54/36/149
f 54/36/149 20/74/145 56/38/150
f 56/38/150 20/74/145 58/40/151
f 58/40/151 20/74/145 60/42/152
f 60/42/152 20/74/145 62/44/153
f 62/44/153 20/74/145 64/46/154
f 64/46/154 20/74/145 66/48/155
f 66/48/155 20/74/145 68/27/156
f 68/27/156 20/74/145 46/26/144
s off
f 77//157 80//158 79//159 78//160
s 11
f 71//161 73//162 74//163 72//164
s off
f 73/75/165 75/78/166 76/77/167 74/76/168
s 12
f 75/79/169 69/82/170 70/81/171 76/80/172
s 13
f 70/83/173 72/86/174 74/85/175 76/84/176
s 14
f 75/87/177 73/90/178 71/89/179 69/88/180
s 12
f 69/82/170 77/92/181 78/91/182 70/81/171
s 13
f 70/83/173 78/94/183 79/93/184 72/86/174
s 11
f 72/95/164 79/98/185 80/97/186 71/96/161
s 14
f 71/89/179 80/100/187 77/99/188 69/88/180
s off
f 81/101/189 83/104/190 84/103/191 82/102/192
f 83/105/193 85/108/194 86/107/195 84/106/196
f 85/109/197 87/112/198 88/111/199 86/110/200
f 87/113/201 81/116/202 82/115/203 88/114/204
f 82/117/205 84/120/206 86/119/207 88/118/208
f 87/121/209 85/124/210 83/123/211 81/122/212
