# This file uses centimeters as units for non-parametric coordinates.

mtllib 07_armR.mtl
g default
v -0.078145 -1.785093 -0.149218
v 0.053976 -1.787809 -0.204109
v 0.186210 -1.790331 -0.149479
v 0.241096 -1.791182 -0.017332
v 0.186482 -1.789864 0.114925
v 0.054360 -1.787148 0.169817
v -0.077873 -1.784624 0.115189
v -0.132758 -1.783775 -0.016960
v -0.188216 -1.677183 -0.261372
v 0.055911 -1.682203 -0.362799
v 0.300246 -1.686863 -0.261858
v 0.401662 -1.688437 -0.017679
v 0.300750 -1.685999 0.226700
v 0.056623 -1.680981 0.328127
v -0.187715 -1.676319 0.227186
v -0.289128 -1.674747 -0.016993
v -0.260026 -1.517366 -0.336468
v 0.058942 -1.523922 -0.468987
v 0.378182 -1.530012 -0.337103
v 0.510688 -1.532064 -0.018068
v 0.378839 -1.528881 0.301229
v 0.059871 -1.522326 0.433750
v -0.259370 -1.516235 0.301865
v -0.391874 -1.514181 -0.017172
v -0.282640 -1.329964 -0.363073
v 0.062608 -1.337061 -0.506512
v 0.408151 -1.343653 -0.363760
v 0.551574 -1.345875 -0.018440
v 0.408862 -1.342430 0.327166
v 0.063613 -1.335333 0.470604
v -0.281930 -1.328741 0.327852
v -0.425353 -1.326515 -0.017469
v -0.252619 -1.143511 -0.337137
v 0.066350 -1.150068 -0.469656
v 0.385591 -1.156158 -0.337772
v 0.518095 -1.158213 -0.018738
v 0.386247 -1.155027 0.300560
v 0.067279 -1.148470 0.433081
v -0.251962 -1.142382 0.301195
v -0.384467 -1.140327 -0.017839
v -0.174529 -0.986393 -0.262608
v 0.069598 -0.991411 -0.364035
v 0.313935 -0.996071 -0.263094
v 0.415350 -0.997644 -0.018915
v 0.314438 -0.995207 0.225464
v 0.070310 -0.990189 0.326891
v -0.174026 -0.985527 0.225950
v -0.275441 -0.983955 -0.018229
v -0.060262 -0.882530 -0.150833
v 0.071860 -0.885246 -0.205725
v 0.204094 -0.887770 -0.151094
v 0.258979 -0.888618 -0.018948
v 0.204366 -0.887300 0.113310
v 0.072245 -0.884584 0.168201
v -0.059989 -0.882061 0.113573
v -0.114875 -0.881210 -0.018576
v 0.053432 -1.824659 -0.017080
v 0.072789 -0.847733 -0.018827
v -0.411775 -3.901743 0.637157
v -0.413081 -3.905661 -0.633453
v -0.368637 -1.156219 -0.636169
v -0.367330 -1.152302 0.634443
v -0.213499 -4.166168 0.637222
v -0.214807 -4.170086 -0.633390
v -0.036020 -1.239138 -0.635939
v -0.034713 -1.235220 0.634674
v 0.258313 -4.182465 0.636753
v 0.257006 -4.186382 -0.633858
v 0.163726 -1.243984 -0.636377
v 0.165033 -1.240067 0.634235
v 0.413644 -3.930254 0.636337
v 0.412337 -3.934172 -0.634274
v 0.492246 -1.113150 -0.637220
v 0.493554 -1.109232 0.633392
v 0.572993 -3.936157 0.507578
v 0.444549 -3.931318 0.636307
v 0.622338 -1.084696 0.504633
v -0.443726 -3.900637 0.637190
v -0.572455 -3.896591 0.508715
v -0.453839 -1.132254 0.634462
v -0.621297 -1.076891 0.505941
v 0.621295 -1.087820 -0.508776
v 0.571950 -3.939281 -0.505831
v 0.443242 -3.935236 -0.634304
v -0.455146 -1.136171 -0.636148
v -0.622338 -1.080015 -0.507467
v -0.445033 -3.904554 -0.633423
v -0.573499 -3.899715 -0.504692
vt 0.995379 0.988333
vt 0.988866 0.990945
vt 0.988796 0.990274
vt 0.994812 0.987861
vt 0.982348 0.988346
vt 0.982774 0.987872
vt 0.982335 0.975762
vt 0.988847 0.973150
vt 0.988778 0.973833
vt 0.982762 0.976247
vt 0.995365 0.975750
vt 0.994800 0.976235
vt 0.998070 0.982039
vt 0.997299 0.982046
vt 0.988734 0.988351
vt 0.993339 0.986503
vt 0.984126 0.986512
vt 0.980275 0.982062
vt 0.982213 0.982065
vt 0.984116 0.977614
vt 0.988721 0.975767
vt 0.993330 0.977606
vt 0.995243 0.982053
vt 0.988692 0.985467
vt 0.991184 0.984468
vt 0.986198 0.984472
vt 0.985162 0.982066
vt 0.986192 0.979657
vt 0.988684 0.978657
vt 0.991179 0.979652
vt 0.992214 0.982059
vt 0.988674 0.982063
vt 0.100239 0.690620
vt 0.104130 0.504818
vt 0.106927 0.504892
vt 0.107812 0.691975
vt 0.190998 0.694688
vt 0.190929 0.628734
vt 0.195527 0.628733
vt 0.204427 0.635404
vt 0.204482 0.688008
vt 0.195596 0.694687
vt 0.104244 0.504553
vt 0.100354 0.690355
vt 0.107927 0.691710
vt 0.107041 0.504628
vt 0.193291 0.628593
vt 0.193361 0.694547
vt 0.195059 0.694546
vt 0.201886 0.687864
vt 0.201831 0.635260
vt 0.194989 0.628592
vt 0.136905 0.618633
vt 0.136721 0.429992
vt 0.203992 0.429783
vt 0.204177 0.618424
vt 0.204263 0.617902
vt 0.204068 0.427137
vt 0.136796 0.427346
vt 0.136992 0.618110
vt 0.182753 0.628590
vt 0.182822 0.694544
vt 0.086887 0.486684
vt 0.071237 0.684752
vt 0.173320 0.694676
vt 0.173251 0.628722
vt 0.071122 0.685017
vt 0.086773 0.486948
vt 0.157677 0.628614
vt 0.157746 0.694568
vt 0.045585 0.485582
vt 0.053751 0.684424
vt 0.162704 0.694699
vt 0.162634 0.628745
vt 0.053636 0.684689
vt 0.045471 0.485847
vt 0.149421 0.628636
vt 0.149490 0.694590
vt 0.031988 0.502626
vt 0.024992 0.693266
vt 0.145243 0.694743
vt 0.145174 0.628789
vt 0.024878 0.693531
vt 0.031873 0.502891
vt 0.029282 0.502554
vt 0.029168 0.502819
vt 0.138329 0.635472
vt 0.138384 0.688076
vt 0.141007 0.687923
vt 0.147848 0.694592
vt 0.147778 0.628637
vt 0.140952 0.635319
vt 0.017924 0.502492
vt 0.013604 0.695189
vt 0.118196 0.505166
vt 0.122471 0.695716
vt 0.013696 0.694978
vt 0.018015 0.502281
vt 0.122562 0.695505
vt 0.118287 0.504955
vn -0.240834 -0.806640 -0.539751
vn -0.240834 -0.806640 -0.539751
vn -0.240834 -0.806640 -0.539751
vn -0.240834 -0.806640 -0.539751
vn 0.207615 -0.815530 -0.540191
vn 0.207615 -0.815530 -0.540191
vn 0.207615 -0.815530 -0.540191
vn 0.207615 -0.815530 -0.540191
vn 0.525031 -0.821252 -0.223355
vn 0.525031 -0.821252 -0.223355
vn 0.525031 -0.821252 -0.223355
vn 0.525031 -0.821252 -0.223355
vn 0.525496 -0.820458 0.225175
vn 0.525496 -0.820458 0.225175
vn 0.525496 -0.820458 0.225175
vn 0.525496 -0.820458 0.225175
vn 0.208727 -0.813612 0.542650
vn 0.208727 -0.813612 0.542650
vn 0.208727 -0.813612 0.542650
vn 0.208727 -0.813612 0.542650
vn -0.239718 -0.804726 0.543094
vn -0.239718 -0.804726 0.543094
vn -0.239718 -0.804726 0.543094
vn -0.239718 -0.804726 0.543094
vn -0.557139 -0.799003 0.226255
vn -0.557139 -0.799003 0.226255
vn -0.557139 -0.799003 0.226255
vn -0.557139 -0.799003 0.226255
vn -0.557604 -0.799793 -0.222281
vn -0.557604 -0.799793 -0.222281
vn -0.557604 -0.799793 -0.222281
vn -0.557604 -0.799793 -0.222281
vn -0.336784 -0.520126 -0.784886
vn -0.336784 -0.520126 -0.784886
vn -0.336784 -0.520126 -0.784886
vn -0.336784 -0.520126 -0.784886
vn 0.314353 -0.533027 -0.785535
vn 0.314353 -0.533027 -0.785535
vn 0.314353 -0.533027 -0.785535
vn 0.314353 -0.533027 -0.785535
vn 0.775254 -0.541340 -0.325473
vn 0.775254 -0.541340 -0.325473
vn 0.775254 -0.541340 -0.325473
vn 0.775254 -0.541340 -0.325473
vn 0.775927 -0.540182 0.325793
vn 0.775927 -0.540182 0.325793
vn 0.775927 -0.540182 0.325793
vn 0.775927 -0.540182 0.325793
vn 0.315976 -0.530248 0.786763
vn 0.315976 -0.530248 0.786763
vn 0.315976 -0.530248 0.786763
vn 0.315976 -0.530248 0.786763
vn -0.335166 -0.517348 0.787410
vn -0.335166 -0.517348 0.787410
vn -0.335166 -0.517348 0.787410
vn -0.335166 -0.517348 0.787410
vn -0.796068 -0.509036 0.327351
vn -0.796068 -0.509036 0.327351
vn -0.796068 -0.509036 0.327351
vn -0.796068 -0.509036 0.327351
vn -0.796734 -0.510193 -0.323911
vn -0.796734 -0.510193 -0.323911
vn -0.796734 -0.510193 -0.323911
vn -0.796734 -0.510193 -0.323911
vn -0.380821 -0.174861 -0.907964
vn -0.380821 -0.174861 -0.907964
vn -0.380821 -0.174861 -0.907964
vn -0.380821 -0.174861 -0.907964
vn 0.371787 -0.189775 -0.908713
vn 0.371787 -0.189775 -0.908713
vn 0.371787 -0.189775 -0.908713
vn 0.371787 -0.189775 -0.908713
vn 0.904517 -0.199377 -0.376959
vn 0.904517 -0.199377 -0.376959
vn 0.904517 -0.199377 -0.376959
vn 0.904517 -0.199377 -0.376959
vn 0.905291 -0.198048 0.375799
vn 0.905291 -0.198048 0.375799
vn 0.905291 -0.198048 0.375799
vn 0.905291 -0.198048 0.375799
vn 0.373661 -0.186557 0.908611
vn 0.373661 -0.186557 0.908611
vn 0.373661 -0.186557 0.908611
vn 0.373661 -0.186557 0.908611
vn -0.378952 -0.171639 0.909360
vn -0.378952 -0.171639 0.909360
vn -0.378952 -0.171639 0.909360
vn -0.378952 -0.171639 0.909360
vn -0.911680 -0.162038 0.377604
vn -0.911679 -0.162038 0.377604
vn -0.911679 -0.162038 0.377604
vn -0.911679 -0.162038 0.377604
vn -0.912452 -0.163368 -0.375156
vn -0.912452 -0.163368 -0.375156
vn -0.912452 -0.163368 -0.375155
vn -0.912452 -0.163368 -0.375156
vn -0.373659 0.186558 -0.908612
vn -0.373659 0.186558 -0.908612
vn -0.373659 0.186558 -0.908612
vn -0.373659 0.186558 -0.908612
vn 0.378949 0.171644 -0.909360
vn 0.378949 0.171644 -0.909360
vn 0.378949 0.171644 -0.909360
vn 0.378949 0.171644 -0.909360
vn 0.911678 0.162039 -0.377606
vn 0.911678 0.162039 -0.377606
vn 0.911678 0.162039 -0.377606
vn 0.911678 0.162039 -0.377606
vn 0.912453 0.163375 0.375152
vn 0.912453 0.163375 0.375152
vn 0.912453 0.163375 0.375152
vn 0.912453 0.163375 0.375152
vn 0.380822 0.174857 0.907964
vn 0.380822 0.174857 0.907964
vn 0.380822 0.174857 0.907964
vn 0.380822 0.174857 0.907964
vn -0.371790 0.189770 0.908713
vn -0.371790 0.189770 0.908713
vn -0.371790 0.189770 0.908713
vn -0.371790 0.189770 0.908713
vn -0.904517 0.199376 0.376960
vn -0.904517 0.199376 0.376960
vn -0.904517 0.199376 0.376960
vn -0.904517 0.199376 0.376960
vn -0.905291 0.198043 -0.375802
vn -0.905291 0.198043 -0.375802
vn -0.905291 0.198043 -0.375803
vn -0.905291 0.198043 -0.375802
vn -0.315973 0.530243 -0.786768
vn -0.315973 0.530243 -0.786768
vn -0.315973 0.530243 -0.786768
vn -0.315973 0.530243 -0.786768
vn 0.335164 0.517338 -0.787417
vn 0.335164 0.517338 -0.787417
vn 0.335164 0.517338 -0.787417
vn 0.335164 0.517338 -0.787417
vn 0.796071 0.509029 -0.327353
vn 0.796071 0.509029 -0.327353
vn 0.796071 0.509029 -0.327353
vn 0.796071 0.509029 -0.327353
vn 0.796742 0.510181 0.323911
vn 0.796741 0.510181 0.323911
vn 0.796742 0.510181 0.323911
vn 0.796741 0.510181 0.323911
vn 0.336787 0.520124 0.784886
vn 0.336787 0.520124 0.784886
vn 0.336787 0.520124 0.784886
vn 0.336787 0.520124 0.784886
vn -0.314355 0.533026 0.785535
vn -0.314355 0.533026 0.785535
vn -0.314355 0.533026 0.785534
vn -0.314355 0.533026 0.785534
vn -0.775256 0.541335 0.325475
vn -0.775257 0.541335 0.325475
vn -0.775257 0.541335 0.325475
vn -0.775257 0.541335 0.325475
vn -0.775926 0.540184 -0.325792
vn -0.775926 0.540184 -0.325792
vn -0.775926 0.540184 -0.325792
vn -0.775926 0.540184 -0.325792
vn -0.208725 0.813617 -0.542644
vn -0.208725 0.813617 -0.542644
vn -0.208725 0.813617 -0.542644
vn -0.208725 0.813617 -0.542644
vn 0.239712 0.804735 -0.543083
vn 0.239712 0.804736 -0.543083
vn 0.239712 0.804736 -0.543083
vn 0.239712 0.804736 -0.543083
vn 0.557128 0.799012 -0.226249
vn 0.557128 0.799012 -0.226249
vn 0.557128 0.799012 -0.226249
vn 0.557128 0.799012 -0.226249
vn 0.557593 0.799803 0.222273
vn 0.557594 0.799803 0.222273
vn 0.557594 0.799803 0.222273
vn 0.557594 0.799803 0.222273
vn 0.240826 0.806648 0.539742
vn 0.240826 0.806648 0.539742
vn 0.240826 0.806648 0.539742
vn 0.240826 0.806648 0.539742
vn -0.207604 0.815533 0.540190
vn -0.207604 0.815533 0.540190
vn -0.207604 0.815533 0.540191
vn -0.207604 0.815533 0.540190
vn -0.525030 0.821254 0.223349
vn -0.525030 0.821254 0.223349
vn -0.525030 0.821254 0.223349
vn -0.525030 0.821254 0.223349
vn -0.525491 0.820460 -0.225177
vn -0.525491 0.820460 -0.225177
vn -0.525491 0.820460 -0.225177
vn -0.525491 0.820460 -0.225177
vn -0.100095 -0.976155 -0.192621
vn -0.100095 -0.976155 -0.192621
vn -0.100095 -0.976155 -0.192621
vn 0.060970 -0.979346 -0.192782
vn 0.060970 -0.979346 -0.192782
vn 0.060970 -0.979346 -0.192782
vn 0.174968 -0.981400 -0.078989
vn 0.174968 -0.981401 -0.078989
vn 0.174968 -0.981401 -0.078989
vn 0.175133 -0.981116 0.082095
vn 0.175134 -0.981116 0.082095
vn 0.175133 -0.981116 0.082095
vn 0.061362 -0.978658 0.196120
vn 0.061362 -0.978658 0.196120
vn 0.061362 -0.978658 0.196120
vn -0.099702 -0.975466 0.196280
vn -0.099702 -0.975466 0.196280
vn -0.099702 -0.975466 0.196280
vn -0.213691 -0.973412 0.082499
vn -0.213691 -0.973412 0.082499
vn -0.213691 -0.973412 0.082499
vn -0.213858 -0.973697 -0.078605
vn -0.213858 -0.973697 -0.078605
vn -0.213858 -0.973697 -0.078605
vn -0.061366 0.978656 -0.196129
vn -0.061366 0.978656 -0.196129
vn -0.061366 0.978656 -0.196129
vn 0.099709 0.975463 -0.196289
vn 0.099709 0.975463 -0.196289
vn 0.099709 0.975463 -0.196289
vn 0.213700 0.973409 -0.082505
vn 0.213700 0.973409 -0.082505
vn 0.213700 0.973409 -0.082505
vn 0.213867 0.973695 0.078609
vn 0.213867 0.973695 0.078609
vn 0.213867 0.973695 0.078609
vn 0.100098 0.976152 0.192631
vn 0.100098 0.976152 0.192631
vn 0.100098 0.976152 0.192631
vn -0.060957 0.979345 0.192791
vn -0.060957 0.979345 0.192791
vn -0.060957 0.979345 0.192791
vn -0.174968 0.981401 0.078988
vn -0.174968 0.981401 0.078988
vn -0.174968 0.981401 0.078988
vn -0.175133 0.981115 -0.082109
vn -0.175133 0.981115 -0.082109
vn -0.175133 0.981115 -0.082109
vn 0.000171 0.000937 1.000000
vn 0.000610 0.000982 0.999999
vn 0.000610 0.000982 0.999999
vn 0.000114 0.000931 1.000000
vn 0.259586 0.965715 -0.003245
vn 0.283981 0.958825 -0.003248
vn 0.283981 0.958825 -0.003248
vn 0.283981 0.958825 -0.003248
vn 0.283981 0.958825 -0.003248
vn 0.259573 0.965718 -0.003245
vn -0.000117 -0.000931 -1.000000
vn -0.000611 -0.000982 -0.999999
vn -0.000611 -0.000982 -0.999999
vn -0.000174 -0.000937 -1.000000
vn -0.614562 -0.788863 0.003064
vn -0.034537 -0.999399 0.003117
vn -0.034537 -0.999399 0.003117
vn -0.034537 -0.999399 0.003117
vn -0.034537 -0.999399 0.003117
vn -0.614904 -0.788597 0.003064
vn -0.999849 -0.017317 0.001082
vn -0.999850 -0.017317 0.001082
vn -0.999849 -0.017317 0.001082
vn -0.999849 -0.017317 0.001082
vn 0.999850 -0.017304 -0.000975
vn 0.999850 -0.017304 -0.000975
vn 0.999850 -0.017304 -0.000975
vn 0.999850 -0.017304 -0.000975
vn -0.386625 -0.922231 0.003241
vn -0.386159 -0.922427 0.003241
vn -0.001027 -0.000864 -0.999999
vn -0.000765 -0.000881 -0.999999
vn 0.162651 0.986678 -0.003210
vn 0.162671 0.986675 -0.003210
vn 0.000765 0.000880 0.999999
vn 0.001028 0.000864 0.999999
vn 0.352360 -0.935861 0.002523
vn 0.351814 -0.936066 0.002524
vn -0.001477 -0.000867 -0.999999
vn -0.001590 -0.000893 -0.999998
vn -0.232081 0.972692 -0.002760
vn -0.231903 0.972735 -0.002761
vn 0.001592 0.000892 0.999998
vn 0.001480 0.000866 0.999999
vn 0.633381 -0.773838 0.001734
vn 0.633795 -0.773499 0.001733
vn -0.001818 -0.000955 -0.999998
vn -0.001847 -0.000953 -0.999998
vn -0.344701 0.938709 -0.002540
vn -0.344698 0.938710 -0.002540
vn 0.001847 0.000952 0.999998
vn 0.001818 0.000954 0.999998
vn -0.001022 -0.001016 -0.999999
vn 0.001022 0.001015 0.999999
vn -0.189887 0.981802 -0.002832
vn -0.189887 0.981802 -0.002832
vn -0.034502 -0.999400 0.003117
vn -0.034502 -0.999400 0.003117
vn -0.034502 -0.999400 0.003117
vn -0.034502 -0.999400 0.003117
vn 0.707858 -0.011541 0.706261
vn 0.707858 -0.011541 0.706261
vn 0.707858 -0.011541 0.706261
vn 0.707858 -0.011541 0.706261
vn -0.656062 -0.006179 0.754682
vn -0.656062 -0.006179 0.754682
vn -0.656062 -0.006179 0.754682
vn -0.656062 -0.006179 0.754682
vn 0.706430 -0.012977 -0.707664
vn 0.706430 -0.012977 -0.707664
vn 0.706430 -0.012977 -0.707664
vn 0.706430 -0.012977 -0.707664
vn -0.657522 -0.007678 -0.753397
vn -0.657522 -0.007678 -0.753397
vn -0.657522 -0.007678 -0.753397
vn -0.657522 -0.007678 -0.753397
s off
g polySurface610
usemtl lambert15SG
f 1//1 9//2 10//3 2//4
f 2//5 10//6 11//7 3//8
f 3//9 11//10 12//11 4//12
f 4//13 12//14 13//15 5//16
f 5//17 13//18 14//19 6//20
f 6//21 14//22 15//23 7//24
f 7//25 15//26 16//27 8//28
f 8//29 16//30 9//31 1//32
f 9//33 17//34 18//35 10//36
f 10//37 18//38 19//39 11//40
f 11//41 19//42 20//43 12//44
f 12//45 20//46 21//47 13//48
f 13//49 21//50 22//51 14//52
f 14//53 22//54 23//55 15//56
f 15//57 23//58 24//59 16//60
f 16//61 24//62 17//63 9//64
f 17//65 25//66 26//67 18//68
f 18//69 26//70 27//71 19//72
f 19//73 27//74 28//75 20//76
f 20//77 28//78 29//79 21//80
f 21//81 29//82 30//83 22//84
f 22//85 30//86 31//87 23//88
f 23//89 31//90 32//91 24//92
f 24//93 32//94 25//95 17//96
f 25/1/97 33/4/98 34/3/99 26/2/100
f 26/2/101 34/3/102 35/6/103 27/5/104
f 27//105 35//106 36//107 28//108
f 28//109 36//110 37//111 29//112
f 29/7/113 37/10/114 38/9/115 30/8/116
f 30/8/117 38/9/118 39/12/119 31/11/120
f 31/11/121 39/12/122 40/14/123 32/13/124
f 32/13/125 40/14/126 33/4/127 25/1/128
f 33/4/129 41/16/130 42/15/131 34/3/132
f 34/3/133 42/15/134 43/17/135 35/6/136
f 35/6/137 43/17/138 44/19/139 36/18/140
f 36/18/141 44/19/142 45/20/143 37/10/144
f 37/10/145 45/20/146 46/21/147 38/9/148
f 38/9/149 46/21/150 47/22/151 39/12/152
f 39/12/153 47/22/154 48/23/155 40/14/156
f 40/14/157 48/23/158 41/16/159 33/4/160
f 41/16/161 49/25/162 50/24/163 42/15/164
f 42/15/165 50/24/166 51/26/167 43/17/168
f 43/17/169 51/26/170 52/27/171 44/19/172
f 44/19/173 52/27/174 53/28/175 45/20/176
f 45/20/177 53/28/178 54/29/179 46/21/180
f 46/21/181 54/29/182 55/30/183 47/22/184
f 47/22/185 55/30/186 56/31/187 48/23/188
f 48/23/189 56/31/190 49/25/191 41/16/192
f 2//193 57//194 1//195
f 3//196 57//197 2//198
f 4//199 57//200 3//201
f 5//202 57//203 4//204
f 6//205 57//206 5//207
f 7//208 57//209 6//210
f 8//211 57//212 7//213
f 1//214 57//215 8//216
f 49/25/217 58/32/218 50/24/219
f 50/24/220 58/32/221 51/26/222
f 51/26/223 58/32/224 52/27/225
f 52/27/226 58/32/227 53/28/228
f 53/28/229 58/32/230 54/29/231
f 54/29/232 58/32/233 55/30/234
f 55/30/235 58/32/236 56/31/237
f 56/31/238 58/32/239 49/25/240
s 1
f 62/33/241 80/36/242 78/35/243 59/34/244
s 2
f 61/37/245 85/42/246 86/41/247 81/40/248 80/39/249 62/38/250
s 3
f 60/43/251 87/46/252 85/45/253 61/44/254
s 4
f 59/47/255 78/52/256 79/51/257 88/50/258 87/49/259 60/48/260
s off
f 81/53/261 86/56/262 88/55/263 79/54/264
f 82/57/265 77/60/266 75/59/267 83/58/268
s 4
f 63/61/269 59/47/255 60/48/260 64/62/270
s 3
f 64/63/271 60/43/251 61/44/254 65/64/272
s 2
f 65/65/273 61/37/245 62/38/250 66/66/274
s 1
f 66/67/275 62/33/241 59/34/244 63/68/276
s 4
f 67/69/277 63/61/269 64/62/270 68/70/278
s 3
f 68/71/279 64/63/271 65/64/272 69/72/280
s 2
f 69/73/281 65/65/273 66/66/274 70/74/282
s 1
f 70/75/283 66/67/275 63/68/276 67/76/284
s 4
f 71/77/285 67/69/277 68/70/278 72/78/286
s 3
f 72/79/287 68/71/279 69/72/280 73/80/288
s 2
f 73/81/289 69/73/281 70/74/282 74/82/290
s 1
f 74/83/291 70/75/283 67/76/284 71/84/292
s 3
f 84/85/293 72/79/287 73/80/288
s 1
f 74/83/291 71/84/292 76/86/294
s 2
f 77/87/295 82/88/296 73/81/289 74/82/290
s 4
f 83/89/297 75/92/298 76/91/299 71/77/285 72/78/286 84/90/300
s off
f 75/93/301 77/94/302 74/83/303 76/86/304
f 78/35/305 80/36/306 81/96/307 79/95/308
f 82/97/309 83/98/310 84/85/311 73/80/312
f 85/45/313 87/46/314 88/100/315 86/99/316
