# This file uses centimeters as units for non-parametric coordinates.

mtllib 13_footR.mtl
g default
v 0.607794 0.821186 -0.787718
v 0.607794 0.015924 -1.121269
v 0.607794 -0.789335 -0.787718
v 0.607794 -1.122885 0.017542
v 0.607794 -0.789335 0.822802
v 0.607794 0.015924 1.156351
v 0.607794 0.821186 0.822802
v 0.607794 1.154736 0.017542
v -0.678234 0.821186 -0.787718
v -0.678234 0.015924 -1.121269
v -0.678234 -0.789335 -0.787718
v -0.678234 -1.122885 0.017542
v -0.678234 -0.789335 0.822802
v -0.678234 0.015924 1.156351
v -0.678234 0.821186 0.822802
v -0.678234 1.154736 0.017542
v 0.607794 0.015924 0.017542
v -0.678234 0.015924 0.017542
v -0.122060 -9.620630 0.921223
v 0.122059 -9.620630 0.921223
v -0.857007 -0.615248 0.921223
v 0.857007 -0.615248 0.921223
v -0.857007 -0.615248 -1.005894
v 0.857007 -0.615248 -1.005894
v -0.857007 -10.549585 -0.341860
v 0.857007 -10.549585 -0.341860
v -0.122060 0.181521 2.669308
v 0.122059 0.181521 2.669308
v 0.857007 -1.979515 -1.708206
v 0.857007 -2.564116 -1.327282
v 0.857007 -3.641207 -1.758846
v -0.857007 -2.564116 -1.327282
v -0.857007 -1.979515 -1.708206
v -0.857007 -3.641207 -1.758846
v 0.857007 -4.949789 -0.713856
v -0.857007 -4.949789 -0.713856
v 0.122059 -5.343348 0.921223
v -0.122060 -5.343348 0.921223
v 0.857007 -5.131094 0.039392
v 0.857007 -10.780226 0.246820
v -0.857007 -10.780226 0.246820
v -0.857007 -5.131094 0.039392
v -0.731553 -10.225698 -0.357441
v 0.731885 -10.225698 -0.357441
v -0.731553 -4.849623 -0.690865
v 0.731885 -4.849623 -0.690865
v -0.731553 -4.813417 -1.221304
v 0.731885 -4.813417 -1.221304
v -0.731553 -9.847700 -0.829712
v 0.731885 -9.847700 -0.829712
v -0.731553 -6.300867 -0.600859
v 0.731885 -6.300867 -0.600859
v 0.731885 -6.390593 -1.994061
v -0.731553 -6.390593 -1.994061
v -0.731553 -7.594747 -0.520611
v 0.731885 -7.594747 -0.520611
v 0.731885 -7.684472 -1.913813
v -0.731553 -7.684472 -1.913813
vt 0.994148 0.991623
vt 0.994148 0.994348
vt 0.975544 0.994348
vt 0.975544 0.991623
vt 0.994148 0.991623
vt 0.975544 0.991623
vt 0.994148 0.985046
vt 0.975544 0.985046
vt 0.994148 0.978468
vt 0.975544 0.978468
vt 0.994148 0.975743
vt 0.975544 0.975743
vt 0.994148 0.978468
vt 0.975544 0.978468
vt 0.994148 0.985046
vt 0.975544 0.985046
vt 0.994148 0.985046
vt 0.975544 0.985046
vt 0.332158 0.301400
vt 0.340516 0.301400
vt 0.365677 0.340547
vt 0.306997 0.340547
vt 0.365677 0.383704
vt 0.306997 0.383704
vt 0.419093 0.289388
vt 0.489753 0.289388
vt 0.489753 0.255535
vt 0.419093 0.255535
vt 0.307025 0.382954
vt 0.365146 0.382954
vt 0.365146 0.344666
vt 0.307025 0.344666
vt 0.282316 0.308227
vt 0.381459 0.243031
vt 0.390909 0.256913
vt 0.373486 0.289307
vt 0.325681 0.289307
vt 0.249606 0.158421
vt 0.261153 0.158421
vt 0.261153 0.298997
vt 0.249606 0.298997
vt 0.347556 0.182078
vt 0.342411 0.047939
vt 0.357014 0.053415
vt 0.366242 0.186383
vt 0.419093 0.214301
vt 0.489753 0.214301
vt 0.489753 0.181828
vt 0.419093 0.181828
vt 0.366242 0.186383
vt 0.347556 0.182078
vt 0.325681 0.177038
vt 0.282316 0.308227
vt 0.381459 0.243031
vt 0.392165 0.217456
vt 0.390909 0.256913
vt 0.325681 0.289307
vt 0.373486 0.289307
vt 0.392165 0.217456
vt 0.419947 0.288865
vt 0.491356 0.288865
vt 0.491356 0.052468
vt 0.419947 0.052468
vt 0.325681 0.177038
vt 0.357014 0.053415
vt 0.342411 0.047939
vt 0.249606 0.049588
vt 0.261153 0.049588
vt 0.325681 0.075474
vt 0.340224 0.300802
vt 0.331947 0.300802
vt 0.325681 0.075474
vt 0.421101 0.319585
vt 0.483601 0.319585
vt 0.483601 0.382085
vt 0.421101 0.382085
vt 0.424264 0.185213
vt 0.484595 0.185213
vt 0.484595 0.146076
vt 0.424264 0.146076
vt 0.424264 0.060289
vt 0.484595 0.060289
vt 0.484595 0.050909
vt 0.424264 0.050909
vt 0.363439 0.154302
vt 0.398000 0.152171
vt 0.378830 0.189621
vt 0.365672 0.188762
vt 0.398000 0.152171
vt 0.363439 0.154302
vt 0.365672 0.188762
vt 0.378830 0.189621
vt 0.361448 0.123578
vt 0.396009 0.121448
vt 0.484595 0.113968
vt 0.424264 0.113968
vt 0.396009 0.121448
vt 0.361448 0.123578
vt 0.357400 0.061106
vt 0.369116 0.070082
vt 0.369116 0.070082
vt 0.357400 0.061106
vn 0.000000 0.382685 -0.923879
vn 0.000000 0.382685 -0.923879
vn 0.000000 0.382685 -0.923879
vn 0.000000 0.382685 -0.923879
vn 0.000000 -0.382685 -0.923879
vn 0.000000 -0.382685 -0.923879
vn 0.000000 -0.382685 -0.923879
vn 0.000000 -0.382685 -0.923879
vn 0.000000 -0.923880 -0.382683
vn 0.000000 -0.923880 -0.382683
vn 0.000000 -0.923880 -0.382683
vn 0.000000 -0.923880 -0.382683
vn 0.000000 -0.923880 0.382683
vn 0.000000 -0.923880 0.382683
vn 0.000000 -0.923880 0.382683
vn 0.000000 -0.923880 0.382683
vn 0.000000 -0.382683 0.923880
vn 0.000000 -0.382683 0.923880
vn 0.000000 -0.382683 0.923880
vn 0.000000 -0.382683 0.923880
vn 0.000000 0.382683 0.923880
vn 0.000000 0.382683 0.923880
vn 0.000000 0.382683 0.923880
vn 0.000000 0.382683 0.923880
vn 0.000000 0.923880 0.382683
vn 0.000000 0.923880 0.382683
vn 0.000000 0.923880 0.382683
vn 0.000000 0.923880 0.382683
vn 0.000000 0.923880 -0.382683
vn 0.000000 0.923880 -0.382683
vn 0.000000 0.923880 -0.382683
vn 0.000000 0.923880 -0.382683
vn 1.000000 0.000000 0.000000
vn 1.000000 0.000000 0.000000
vn 1.000000 0.000000 0.000000
vn 1.000000 0.000000 0.000000
vn 1.000000 0.000000 0.000000
vn 1.000000 0.000000 0.000000
vn 1.000000 0.000000 0.000000
vn 1.000000 0.000000 0.000000
vn 1.000000 0.000000 0.000000
vn -1.000000 0.000000 0.000000
vn -1.000000 0.000000 0.000000
vn -1.000000 0.000000 0.000000
vn -1.000000 0.000000 0.000000
vn -1.000000 0.000000 0.000000
vn -1.000000 0.000000 0.000000
vn -1.000000 0.000000 0.000000
vn -1.000000 0.000000 0.000000
vn -1.000000 0.000000 0.000000
vn 0.000000 0.974540 0.224212
vn 0.000000 0.974540 0.224212
vn 0.000000 0.909938 -0.414745
vn 0.000000 0.909938 -0.414745
vn 0.000000 1.000000 -0.000000
vn 0.000000 1.000000 -0.000000
vn 0.000000 1.000000 -0.000000
vn 0.000000 1.000000 -0.000000
vn 0.000000 0.457703 -0.889105
vn 0.000000 0.457703 -0.889105
vn 0.000000 0.241468 -0.970409
vn 0.000000 0.241468 -0.970409
vn 0.000000 -0.931089 -0.364793
vn 0.000000 -0.931089 -0.364793
vn 0.000000 -0.968064 0.250703
vn 0.000000 -0.968064 0.250703
vn 0.967368 -0.036381 0.250749
vn 0.968605 -0.046124 0.244291
vn 0.947708 -0.241162 0.209024
vn 0.944722 -0.247760 0.214743
vn 0.944722 -0.247760 0.214743
vn 0.000000 -0.175567 0.984468
vn 0.000000 -0.175567 0.984468
vn 0.955988 -0.005764 0.293351
vn 0.936826 0.007308 0.349719
vn 1.000000 0.000000 0.000000
vn 0.975552 -0.010347 0.219527
vn 0.000000 -0.317451 -0.948275
vn 0.000000 -0.317451 -0.948275
vn 0.000000 -0.200928 -0.979606
vn 0.000000 -0.200928 -0.979606
vn -0.975552 -0.010347 0.219527
vn -0.955988 -0.005764 0.293351
vn -0.913705 -0.003406 0.406365
vn -0.967368 -0.036381 0.250749
vn -0.968605 -0.046124 0.244290
vn -0.967399 -0.011924 0.252977
vn -0.947708 -0.241162 0.209024
vn -0.944722 -0.247760 0.214743
vn -0.944722 -0.247760 0.214743
vn 0.967399 -0.011924 0.252977
vn 0.000000 -0.066284 -0.997801
vn 0.000000 -0.066284 -0.997801
vn 0.913705 -0.003406 0.406365
vn -1.000000 0.000000 0.000000
vn -0.936826 0.007308 0.349719
vn 0.000000 0.000000 1.000000
vn 0.000000 0.000000 1.000000
vn 0.731227 0.014251 0.681985
vn 0.000000 -0.502743 0.864436
vn 0.000000 -0.502743 0.864436
vn -0.731228 0.014251 0.681985
vn 0.000000 0.061901 0.998082
vn 0.000000 0.061901 0.998082
vn 0.000000 0.061901 0.998082
vn 0.000000 0.061901 0.998082
vn 0.000000 0.997679 0.068097
vn 0.000000 0.997679 0.068097
vn 0.000000 0.997679 0.068097
vn 0.000000 0.997679 0.068097
vn 0.000000 0.439988 -0.898004
vn 0.000000 0.439988 -0.898004
vn 0.000000 0.234479 -0.972121
vn 0.000000 0.234479 -0.972121
vn 0.000000 -0.780722 -0.624879
vn 0.000000 -0.780722 -0.624879
vn 0.000000 -0.780722 -0.624879
vn 0.000000 -0.780722 -0.624879
vn 1.000000 0.000000 0.000000
vn 1.000000 0.000000 0.000000
vn 1.000000 0.000000 0.000000
vn 1.000000 0.000000 0.000000
vn -1.000000 -0.000000 0.000000
vn -1.000000 -0.000000 0.000000
vn -1.000000 0.000000 0.000000
vn -1.000000 0.000000 0.000000
vn 0.000000 0.061901 0.998082
vn 0.000000 0.061901 0.998082
vn 1.000000 0.000000 0.000000
vn 1.000000 0.000000 0.000000
vn 0.000000 -0.319182 -0.947694
vn 0.000000 -0.319182 -0.947694
vn -1.000000 -0.000000 0.000000
vn -1.000000 -0.000000 0.000000
vn 0.000000 0.061900 0.998082
vn 0.000000 0.061900 0.998082
vn 1.000000 -0.000000 0.000000
vn 1.000000 -0.000000 0.000000
vn 0.000000 -0.448036 -0.894016
vn 0.000000 -0.448036 -0.894016
vn -1.000000 -0.000000 0.000000
vn -1.000000 -0.000000 0.000000
s off
g polySurface627
usemtl lambert15SG
f 1/1/1 2/2/2 10/3/3 9/4/4
f 2/2/5 3/5/6 11/6/7 10/3/8
f 3/5/9 4/7/10 12/8/11 11/6/12
f 4/7/13 5/9/14 13/10/15 12/8/16
f 5/9/17 6/11/18 14/12/19 13/10/20
f 6/11/21 7/13/22 15/14/23 14/12/24
f 7/13/25 8/15/26 16/16/27 15/14/28
f 8/15/29 1/1/30 9/4/31 16/16/32
s 1
f 2/2/33 1/1/34 17/17/35
f 3/5/36 2/2/33 17/17/35
f 4/7/37 3/5/36 17/17/35
f 5/9/38 4/7/37 17/17/35
f 6/11/39 5/9/38 17/17/35
f 7/13/40 6/11/39 17/17/35
f 8/15/41 7/13/40 17/17/35
f 1/1/34 8/15/41 17/17/35
s 2
f 9/4/42 10/3/43 18/18/44
f 10/3/43 11/6/45 18/18/44
f 11/6/45 12/8/46 18/18/44
f 12/8/46 13/10/47 18/18/44
f 13/10/47 14/12/48 18/18/44
f 14/12/48 15/14/49 18/18/44
f 15/14/49 16/16/50 18/18/44
f 16/16/50 9/4/42 18/18/44
s 3
f 27/19/51 28/20/52 22/21/53 21/22/54
s off
f 21/22/55 22/21/56 24/23/57 23/24/58
s 4
f 23/25/59 24/26/60 29/27/61 33/28/62
s 5
f 25/29/63 26/30/64 40/31/65 41/32/66
s 6
f 28/33/67 30/34/68 29/35/69 24/36/70 22/37/71
s 3
f 38/38/72 37/39/73 28/40/52 27/41/51
s 6
f 39/42/74 40/43/75 26/44/76 35/45/77
s 4
f 34/46/78 31/47/79 35/48/80 36/49/81
s 8
f 36/50/82 42/51/83 38/52/84 27/53/85 32/54/86 34/55/87
f 33/56/88 32/54/86 27/53/85 21/57/89 23/58/90
s 4
f 29/27/61 31/47/79 34/46/78 33/28/62
s 6
f 29/35/69 30/34/68 31/59/91
s 8
f 32/54/86 33/56/88 34/55/87
s 4
f 36/60/81 35/61/80 26/62/92 25/63/93
s 6
f 37/64/94 39/42/74 35/45/77 31/59/91 30/34/68 28/33/67
s 8
f 25/65/95 41/66/96 42/51/83 36/50/82
s 3
f 19/67/97 20/68/98 37/39/73 38/38/72
s 6
f 20/69/99 40/43/75 39/42/74 37/64/94
s 5
f 41/32/66 40/31/65 20/70/100 19/71/101
s 8
f 42/51/83 41/66/96 19/72/102 38/52/84
s 9
f 51//103 52//104 46//105 45//106
s off
f 45/73/107 46/74/108 48/75/109 47/76/110
s 10
f 47/77/111 48/78/112 53/79/113 54/80/114
s off
f 49/81/115 50/82/116 44/83/117 43/84/118
s 11
f 52/85/119 53/86/120 48/87/121 46/88/122
s 12
f 54/89/123 51/90/124 45/91/125 47/92/126
s 9
f 55//127 56//128 52//104 51//103
s 11
f 56/93/129 57/94/130 53/86/120 52/85/119
s 10
f 54/80/114 53/79/113 57/95/131 58/96/132
s 12
f 58/97/133 55/98/134 51/90/124 54/89/123
s 9
f 43//135 44//136 56//128 55//127
s 11
f 44/99/137 50/100/138 57/94/130 56/93/129
s 10
f 58/96/132 57/95/131 50/82/139 49/81/140
s 12
f 49/101/141 43/102/142 55/98/134 58/97/133
